# xmcd CD database file
# Copyright (C) 1996 Ti Kan
#
# Track frame offsets:
# 	150
# 	17167
# 	28952
# 	54257
# 	67922
# 	80262
# 	94560
# 	108175
# 	120765
# 	133752
# 	145130
# 	160080
# 	173180
# 	186742
# 	201635
# 	219080
# 	233717
# 	245982
#
# Disc length: 3670 seconds
#
# Revision: 1
# Processed by: cddbd v1.4b41PL1 Copyright (c) Steve Scherf et al.
# Submitted via: DiscPlay 3.4.1
#
DISCID=f70e5412
DTITLE=Steve Philips featuring Mark Knopfler - Just Picking
DYEAR=1900
DGENRE=
TTITLE0=Just pickin'
TTITLE1=Guitar rag
TTITLE2=Moon going down
TTITLE3=Let's go to town
TTITLE4=Don't drink it in here
TTITLE5=Hometown rag
TTITLE6=Hawkins rag
TTITLE7=Hillibilly Boogy
TTITLE8=Swingin' with Lonnie
TTITLE9=Blues stay away from me
TTITLE10=Dallas rag
TTITLE11=Blue guitars
TTITLE12=Deep minor rhythm
TTITLE13=My washwomans gone
TTITLE14=Chimes
TTITLE15=Bullfrog moan
TTITLE16=Rolling down to Memphis town
TTITLE17=You may leave, but this will bring you back
EXTD=
EXTT0=
EXTT1=
EXTT2=
EXTT3=
EXTT4=
EXTT5=
EXTT6=
EXTT7=
EXTT8=
EXTT9=
EXTT10=
EXTT11=
EXTT12=
EXTT13=
EXTT14=
EXTT15=
EXTT16=
EXTT17=
PLAYORDER=
